<?xml version="1.0" standalone="no"?>
<!DOCTYPE svg PUBLIC "-//W3C//DTD SVG 20010904//EN"
 "http://www.w3.org/TR/2001/REC-SVG-20010904/DTD/svg10.dtd">
<svg version="1.0" xmlns="http://www.w3.org/2000/svg"
 width="453.000000pt" height="129.000000pt" viewBox="0 0 453.000000 129.000000"
 preserveAspectRatio="xMidYMid meet">
<metadata>
Created by potrace 1.11, written by Peter Selinger 2001-2013
</metadata>
<g transform="translate(0.000000,129.000000) scale(0.100000,-0.100000)"
fill="#000000" stroke="none">
<path d="M521 1059 c-71 -21 -149 -88 -193 -166 -13 -23 -45 -58 -71 -78 -144
-110 -132 -280 26 -380 16 -10 37 -34 47 -54 28 -56 96 -120 156 -148 133 -61
280 -11 370 124 22 32 59 72 83 88 99 68 138 182 93 271 -20 39 -103 124 -121
124 -5 0 -23 24 -39 53 -39 68 -119 141 -179 161 -51 18 -120 19 -172 5z m172
-19 c58 -22 136 -91 164 -143 15 -29 15 -30 -9 -23 -12 4 -48 15 -78 24 -39
12 -91 16 -175 16 -101 0 -131 -5 -192 -26 -40 -13 -73 -21 -73 -18 0 15 60
88 100 123 78 67 168 83 263 47z m79 -155 c101 -27 115 -38 135 -103 22 -76
22 -209 -2 -289 -9 -35 -23 -67 -29 -72 -28 -23 -148 -52 -236 -57 -103 -7
-205 9 -283 44 -36 16 -45 26 -56 63 -31 103 -31 241 0 335 27 83 286 126 471
79z m233 -145 c58 -84 39 -191 -48 -265 -22 -19 -44 -35 -48 -35 -4 0 -1 21 7
47 29 96 29 197 -2 317 l-7 29 35 -27 c20 -14 48 -45 63 -66z m-726 33 c-18
-52 -16 -225 4 -285 14 -45 14 -47 -2 -38 -26 14 -91 88 -101 116 -16 41 -11
112 9 153 20 38 89 107 98 97 3 -2 -1 -22 -8 -43z m124 -395 c53 -19 83 -22
202 -22 119 0 149 4 199 22 33 12 61 20 63 18 10 -9 -87 -113 -129 -139 -55
-34 -148 -46 -214 -28 -53 14 -125 70 -164 126 -17 25 -28 45 -25 45 3 0 34
-10 68 -22z"/>
<path d="M663 862 c-41 -15 -43 -18 -98 -150 -31 -74 -54 -136 -52 -138 2 -2
23 2 45 10 23 9 42 11 42 6 0 -5 -12 -34 -27 -65 -21 -43 -32 -55 -50 -55 -31
0 -29 -11 6 -44 l30 -29 42 34 c32 25 39 35 26 37 -9 2 -17 5 -17 7 0 2 27 50
61 105 34 56 59 104 56 107 -3 3 -31 -4 -61 -16 -31 -11 -56 -17 -56 -12 0 4
25 53 55 108 30 56 55 103 55 107 0 9 -9 7 -57 -12z m37 -6 c0 -1 -25 -49 -56
-105 -31 -56 -54 -105 -51 -108 3 -3 29 3 57 12 28 9 53 15 55 13 2 -2 -22
-48 -55 -103 -38 -64 -55 -102 -48 -106 6 -4 0 -14 -16 -24 -26 -18 -28 -18
-49 3 -21 21 -21 22 -2 22 15 0 28 18 52 72 18 39 31 73 29 76 -3 2 -21 -1
-41 -8 -20 -7 -39 -10 -41 -7 -3 3 17 58 44 123 42 99 55 121 78 131 30 12 44
16 44 9z"/>
<path d="M1142 713 c3 -124 4 -128 26 -131 21 -3 22 0 22 52 l0 56 60 0 60 0
0 -55 c0 -52 1 -55 25 -55 l25 0 0 130 0 130 -25 0 c-24 0 -25 -3 -25 -55 l0
-56 -57 3 -58 3 -3 53 c-3 48 -5 52 -28 52 l-25 0 3 -127z"/>
<path d="M1456 723 c-27 -65 -51 -124 -53 -130 -3 -9 4 -13 21 -13 20 0 30 8
43 35 16 33 19 35 68 35 49 0 52 -2 68 -35 13 -27 23 -35 43 -35 17 0 24 4 21
13 -99 251 -97 247 -131 247 -32 0 -33 -2 -80 -117z"/>
<path d="M1841 819 c-29 -27 -41 -60 -41 -110 0 -85 51 -129 150 -129 43 0 50
3 50 20 0 17 -7 20 -42 20 -54 0 -92 19 -96 48 -3 21 0 22 67 22 64 0 71 2 71
20 0 18 -7 20 -70 20 -66 0 -70 1 -70 23 0 36 19 47 82 47 51 0 58 2 58 20 0
18 -7 20 -68 20 -55 0 -72 -4 -91 -21z"/>
<path d="M2052 735 c5 -133 15 -147 109 -149 51 -1 64 2 67 15 2 13 -8 17 -49
21 -71 7 -79 21 -79 130 l0 88 -26 0 -26 0 4 -105z"/>
<path d="M2290 812 c-49 -50 -52 -151 -6 -197 39 -39 167 -48 174 -12 3 14 -4
17 -45 17 -59 0 -97 18 -101 47 -3 21 1 22 70 25 60 2 73 6 76 21 3 15 -6 17
-72 17 -66 0 -76 2 -76 18 0 35 18 47 82 52 49 4 64 9 66 23 3 15 -5 17 -68
17 -65 0 -74 -2 -100 -28z"/>
<path d="M2535 818 c-44 -39 -52 -123 -19 -190 17 -33 72 -51 142 -46 35 2 48
7 50 21 3 14 -5 17 -53 17 -73 0 -105 28 -105 92 0 68 19 87 93 90 49 2 62 6
65 21 3 15 -6 17 -72 17 -63 0 -79 -3 -101 -22z"/>
<path d="M2730 820 c0 -17 7 -20 40 -20 l39 0 3 -107 c3 -103 4 -108 26 -111
22 -3 22 -2 22 107 l0 111 45 0 c38 0 45 3 45 20 0 19 -7 20 -110 20 -103 0
-110 -1 -110 -20z"/>
<path d="M2990 709 c0 -130 0 -130 23 -127 19 3 22 10 25 56 l3 52 35 0 c45 0
84 -37 84 -80 0 -26 4 -30 26 -30 26 0 26 2 21 47 -3 26 -12 52 -21 58 -14 11
-14 14 4 30 13 12 20 31 20 56 0 56 -24 69 -132 69 l-88 0 0 -131z"/>
<path d="M3407 820 c-46 -37 -59 -130 -26 -192 15 -28 70 -48 134 -48 47 0 55
3 55 19 0 16 -10 19 -61 23 -75 5 -89 20 -89 94 0 70 15 84 91 84 52 0 59 2
59 20 0 18 -7 20 -69 20 -53 0 -74 -4 -94 -20z"/>
<path d="M3730 739 c0 -55 4 -109 10 -119 12 -23 61 -40 116 -40 36 0 44 3 44
19 0 15 -10 19 -51 23 -27 3 -55 10 -62 17 -7 7 -11 48 -12 106 0 92 -1 95
-22 95 -22 0 -23 -3 -23 -101z"/>
<path d="M3932 735 c4 -133 15 -147 109 -149 51 -1 64 2 67 15 2 13 -8 17 -49
21 -71 7 -79 21 -79 130 l0 88 -26 0 -26 0 4 -105z"/>
<path d="M4167 819 c-48 -37 -58 -137 -20 -195 18 -28 68 -44 136 -44 39 0 47
3 47 19 0 16 -10 19 -61 23 -75 5 -89 20 -89 93 0 69 18 85 93 85 50 0 57 2
57 20 0 18 -7 20 -69 20 -54 0 -74 -4 -94 -21z"/>
<path d="M1127 553 c-34 -33 -44 -33 1611 -31 1429 3 1617 5 1617 18 0 13
-187 15 -1611 18 -886 1 -1614 -1 -1617 -5z"/>
<path d="M1300 423 c-17 -21 -20 -36 -16 -63 7 -42 28 -60 71 -60 43 0 64 18
71 60 8 49 -24 90 -71 90 -25 0 -39 -7 -55 -27z"/>
<path d="M3440 375 l0 -75 48 0 c59 0 82 20 82 73 0 52 -28 77 -85 77 l-45 0
0 -75z"/>
</g>
</svg>
